<svg xmlns="http://www.w3.org/2000/svg" version="1.1" xmlns:xlink="http://www.w3.org/1999/xlink" xmlns:svgjs="http://svgjs.dev/svgjs" viewBox="0 0 800 800" opacity="1"><defs><linearGradient gradientTransform="rotate(270)" x1="50%" y1="0%" x2="50%" y2="100%" id="sssquiggly-grad"><stop stop-color="hsl(206, 75%, 49%)" stop-opacity="1" offset="0%"></stop><stop stop-color="hsla(0, 0%, 80%, 1.00)" stop-opacity="1" offset="100%"></stop></linearGradient></defs><g stroke-width="1.5" stroke="url(#sssquiggly-grad)" fill="none" stroke-linecap="round" transform="matrix(1,0,0,1,-5,1.974365234375)"><path d="M10,10C49.583333333333336,9.791666666666666,118.75,10.041666666666666,200,9C281.25,7.958333333333333,316.66666666666663,3.75,400,5C483.33333333333337,6.25,516.6666666666666,15.833333333333334,600,15C683.3333333333334,14.166666666666666,758.3333333333334,3.916666666666667,800,1"></path><path d="M10,10C49.583333333333336,9.791666666666666,118.75,10.041666666666666,200,9C281.25,7.958333333333333,316.66666666666663,3.75,400,5C483.33333333333337,6.25,516.6666666666666,15.833333333333334,600,15C683.3333333333334,14.166666666666666,758.3333333333334,3.916666666666667,800,1" transform="matrix(1,0,0,1,0,780)"></path><path d="M10,10C49.583333333333336,9.791666666666666,118.75,10.041666666666666,200,9C281.25,7.958333333333333,316.66666666666663,3.75,400,5C483.33333333333337,6.25,516.6666666666666,15.833333333333334,600,15C683.3333333333334,14.166666666666666,758.3333333333334,3.916666666666667,800,1" transform="matrix(1,0,0,1,0,750)"></path><path d="M10,10C49.583333333333336,9.791666666666666,118.75,10.041666666666666,200,9C281.25,7.958333333333333,316.66666666666663,3.75,400,5C483.33333333333337,6.25,516.6666666666666,15.833333333333334,600,15C683.3333333333334,14.166666666666666,758.3333333333334,3.916666666666667,800,1" transform="matrix(1,0,0,1,0,720)"></path><path d="M10,10C49.583333333333336,9.791666666666666,118.75,10.041666666666666,200,9C281.25,7.958333333333333,316.66666666666663,3.75,400,5C483.33333333333337,6.25,516.6666666666666,15.833333333333334,600,15C683.3333333333334,14.166666666666666,758.3333333333334,3.916666666666667,800,1" transform="matrix(1,0,0,1,0,690)"></path><path d="M10,10C49.583333333333336,9.791666666666666,118.75,10.041666666666666,200,9C281.25,7.958333333333333,316.66666666666663,3.75,400,5C483.33333333333337,6.25,516.6666666666666,15.833333333333334,600,15C683.3333333333334,14.166666666666666,758.3333333333334,3.916666666666667,800,1" transform="matrix(1,0,0,1,0,660)"></path><path d="M10,10C49.583333333333336,9.791666666666666,118.75,10.041666666666666,200,9C281.25,7.958333333333333,316.66666666666663,3.75,400,5C483.33333333333337,6.25,516.6666666666666,15.833333333333334,600,15C683.3333333333334,14.166666666666666,758.3333333333334,3.916666666666667,800,1" transform="matrix(1,0,0,1,0,630)"></path><path d="M10,10C49.583333333333336,9.791666666666666,118.75,10.041666666666666,200,9C281.25,7.958333333333333,316.66666666666663,3.75,400,5C483.33333333333337,6.25,516.6666666666666,15.833333333333334,600,15C683.3333333333334,14.166666666666666,758.3333333333334,3.916666666666667,800,1" transform="matrix(1,0,0,1,0,600)"></path><path d="M10,10C49.583333333333336,9.791666666666666,118.75,10.041666666666666,200,9C281.25,7.958333333333333,316.66666666666663,3.75,400,5C483.33333333333337,6.25,516.6666666666666,15.833333333333334,600,15C683.3333333333334,14.166666666666666,758.3333333333334,3.916666666666667,800,1" transform="matrix(1,0,0,1,0,570)"></path><path d="M10,10C49.583333333333336,9.791666666666666,118.75,10.041666666666666,200,9C281.25,7.958333333333333,316.66666666666663,3.75,400,5C483.33333333333337,6.25,516.6666666666666,15.833333333333334,600,15C683.3333333333334,14.166666666666666,758.3333333333334,3.916666666666667,800,1" transform="matrix(1,0,0,1,0,540)"></path><path d="M10,10C49.583333333333336,9.791666666666666,118.75,10.041666666666666,200,9C281.25,7.958333333333333,316.66666666666663,3.75,400,5C483.33333333333337,6.25,516.6666666666666,15.833333333333334,600,15C683.3333333333334,14.166666666666666,758.3333333333334,3.916666666666667,800,1" transform="matrix(1,0,0,1,0,510)"></path><path d="M10,10C49.583333333333336,9.791666666666666,118.75,10.041666666666666,200,9C281.25,7.958333333333333,316.66666666666663,3.75,400,5C483.33333333333337,6.25,516.6666666666666,15.833333333333334,600,15C683.3333333333334,14.166666666666666,758.3333333333334,3.916666666666667,800,1" transform="matrix(1,0,0,1,0,480)"></path><path d="M10,10C49.583333333333336,9.791666666666666,118.75,10.041666666666666,200,9C281.25,7.958333333333333,316.66666666666663,3.75,400,5C483.33333333333337,6.25,516.6666666666666,15.833333333333334,600,15C683.3333333333334,14.166666666666666,758.3333333333334,3.916666666666667,800,1" transform="matrix(1,0,0,1,0,450)"></path><path d="M10,10C49.583333333333336,9.791666666666666,118.75,10.041666666666666,200,9C281.25,7.958333333333333,316.66666666666663,3.75,400,5C483.33333333333337,6.25,516.6666666666666,15.833333333333334,600,15C683.3333333333334,14.166666666666666,758.3333333333334,3.916666666666667,800,1" transform="matrix(1,0,0,1,0,420)"></path><path d="M10,10C49.583333333333336,9.791666666666666,118.75,10.041666666666666,200,9C281.25,7.958333333333333,316.66666666666663,3.75,400,5C483.33333333333337,6.25,516.6666666666666,15.833333333333334,600,15C683.3333333333334,14.166666666666666,758.3333333333334,3.916666666666667,800,1" transform="matrix(1,0,0,1,0,390)"></path><path d="M10,10C49.583333333333336,9.791666666666666,118.75,10.041666666666666,200,9C281.25,7.958333333333333,316.66666666666663,3.75,400,5C483.33333333333337,6.25,516.6666666666666,15.833333333333334,600,15C683.3333333333334,14.166666666666666,758.3333333333334,3.916666666666667,800,1" transform="matrix(1,0,0,1,0,360)"></path><path d="M10,10C49.583333333333336,9.791666666666666,118.75,10.041666666666666,200,9C281.25,7.958333333333333,316.66666666666663,3.75,400,5C483.33333333333337,6.25,516.6666666666666,15.833333333333334,600,15C683.3333333333334,14.166666666666666,758.3333333333334,3.916666666666667,800,1" transform="matrix(1,0,0,1,0,330)"></path><path d="M10,10C49.583333333333336,9.791666666666666,118.75,10.041666666666666,200,9C281.25,7.958333333333333,316.66666666666663,3.75,400,5C483.33333333333337,6.25,516.6666666666666,15.833333333333334,600,15C683.3333333333334,14.166666666666666,758.3333333333334,3.916666666666667,800,1" transform="matrix(1,0,0,1,0,300)"></path><path d="M10,10C49.583333333333336,9.791666666666666,118.75,10.041666666666666,200,9C281.25,7.958333333333333,316.66666666666663,3.75,400,5C483.33333333333337,6.25,516.6666666666666,15.833333333333334,600,15C683.3333333333334,14.166666666666666,758.3333333333334,3.916666666666667,800,1" transform="matrix(1,0,0,1,0,270)"></path><path d="M10,10C49.583333333333336,9.791666666666666,118.75,10.041666666666666,200,9C281.25,7.958333333333333,316.66666666666663,3.75,400,5C483.33333333333337,6.25,516.6666666666666,15.833333333333334,600,15C683.3333333333334,14.166666666666666,758.3333333333334,3.916666666666667,800,1" transform="matrix(1,0,0,1,0,240)"></path><path d="M10,10C49.583333333333336,9.791666666666666,118.75,10.041666666666666,200,9C281.25,7.958333333333333,316.66666666666663,3.75,400,5C483.33333333333337,6.25,516.6666666666666,15.833333333333334,600,15C683.3333333333334,14.166666666666666,758.3333333333334,3.916666666666667,800,1" transform="matrix(1,0,0,1,0,210)"></path><path d="M10,10C49.583333333333336,9.791666666666666,118.75,10.041666666666666,200,9C281.25,7.958333333333333,316.66666666666663,3.75,400,5C483.33333333333337,6.25,516.6666666666666,15.833333333333334,600,15C683.3333333333334,14.166666666666666,758.3333333333334,3.916666666666667,800,1" transform="matrix(1,0,0,1,0,180)"></path><path d="M10,10C49.583333333333336,9.791666666666666,118.75,10.041666666666666,200,9C281.25,7.958333333333333,316.66666666666663,3.75,400,5C483.33333333333337,6.25,516.6666666666666,15.833333333333334,600,15C683.3333333333334,14.166666666666666,758.3333333333334,3.916666666666667,800,1" transform="matrix(1,0,0,1,0,150)"></path><path d="M10,10C49.583333333333336,9.791666666666666,118.75,10.041666666666666,200,9C281.25,7.958333333333333,316.66666666666663,3.75,400,5C483.33333333333337,6.25,516.6666666666666,15.833333333333334,600,15C683.3333333333334,14.166666666666666,758.3333333333334,3.916666666666667,800,1" transform="matrix(1,0,0,1,0,120)"></path><path d="M10,10C49.583333333333336,9.791666666666666,118.75,10.041666666666666,200,9C281.25,7.958333333333333,316.66666666666663,3.75,400,5C483.33333333333337,6.25,516.6666666666666,15.833333333333334,600,15C683.3333333333334,14.166666666666666,758.3333333333334,3.916666666666667,800,1" transform="matrix(1,0,0,1,0,90)"></path><path d="M10,10C49.583333333333336,9.791666666666666,118.75,10.041666666666666,200,9C281.25,7.958333333333333,316.66666666666663,3.75,400,5C483.33333333333337,6.25,516.6666666666666,15.833333333333334,600,15C683.3333333333334,14.166666666666666,758.3333333333334,3.916666666666667,800,1" transform="matrix(1,0,0,1,0,60)"></path><path d="M10,10C49.583333333333336,9.791666666666666,118.75,10.041666666666666,200,9C281.25,7.958333333333333,316.66666666666663,3.75,400,5C483.33333333333337,6.25,516.6666666666666,15.833333333333334,600,15C683.3333333333334,14.166666666666666,758.3333333333334,3.916666666666667,800,1" transform="matrix(1,0,0,1,0,30)"></path></g></svg>